<?xml version="1.0" encoding="UTF-8"?>
<svg version="1.1" xmlns="http://www.w3.org/2000/svg" width="1024" height="1024">
<path d="M0 0 C337.92 0 675.84 0 1024 0 C1024 337.92 1024 675.84 1024 1024 C686.08 1024 348.16 1024 0 1024 C0 686.08 0 348.16 0 0 Z " fill="#AEDAFB" transform="translate(0,0)"/>
<path d="M0 0 C1.23145256 -0.00453111 2.46290513 -0.00906223 3.73167443 -0.01373065 C7.13796771 -0.02418163 10.5440494 -0.0257038 13.95034361 -0.02334189 C17.62873558 -0.02293296 21.30709631 -0.03398024 24.98547363 -0.04345703 C32.18786643 -0.06005153 39.39022648 -0.06556588 46.59263679 -0.06668179 C52.44907389 -0.06763303 58.30550021 -0.07174714 64.1619339 -0.07808304 C80.77679362 -0.09569151 97.39162752 -0.10492257 114.00649664 -0.10342209 C115.34933396 -0.10330222 115.34933396 -0.10330222 116.71929932 -0.10317993 C117.61562105 -0.10309817 118.51194279 -0.10301641 119.43542579 -0.10293217 C133.95787908 -0.10211946 148.48022861 -0.12125428 163.0026519 -0.14945666 C177.92474777 -0.17820585 192.84679306 -0.19199583 207.76891732 -0.19026911 C216.14229226 -0.1896059 224.51555843 -0.19506814 232.88890839 -0.21662521 C240.01882221 -0.23486385 247.14857796 -0.23916242 254.27850506 -0.22560637 C257.91335541 -0.21909007 261.54790274 -0.21891055 265.182724 -0.23631287 C269.13074418 -0.25501954 273.07832527 -0.24245398 277.02636719 -0.22705078 C278.73374262 -0.24248147 278.73374262 -0.24248147 280.47561049 -0.25822389 C292.06098035 -0.15859742 301.34037224 3.22295822 309.76715088 11.26742554 C321.80464166 23.87699508 321.32194231 37.56336319 321.15777588 53.99789429 C321.15030504 56.20177189 321.1446161 58.40565619 321.140625 60.60954285 C321.12543511 66.37834376 321.08621093 72.1467346 321.04180908 77.91537476 C321.00071247 83.81456965 320.98258336 89.71383153 320.96246338 95.61312866 C320.91970994 107.16474001 320.85153978 118.71604852 320.76715088 130.26742554 C319.75802643 130.13012024 318.74890198 129.99281494 317.709198 129.85134888 C316.3608484 129.66933965 315.01248977 129.48739742 313.66412354 129.30551147 C313.00191299 129.21522675 312.33970245 129.12494202 311.65742493 129.03192139 C235.0179414 118.72394466 145.88711848 138.13780193 82.76715088 183.26742554 C81.82226807 183.93129272 80.87738525 184.59515991 79.90386963 185.27914429 C66.8553878 194.5886979 54.18757061 204.51988159 43.05230713 216.08773804 C40.76715088 218.26742554 40.76715088 218.26742554 38.76715088 218.26742554 C38.53125244 218.83332397 38.295354 219.39922241 38.05230713 219.98226929 C36.47300771 222.79044606 34.54029082 224.61125035 32.20465088 226.82992554 C26.94200197 232.00222854 22.29458241 237.44644214 17.76715088 243.26742554 C17.31082275 243.85265991 16.85449463 244.43789429 16.38433838 245.04086304 C-4.19925964 271.56838776 -20.02752916 300.59407732 -31.23284912 332.26742554 C-35.21857824 330.93884916 -35.72745488 329.24225871 -37.79534912 325.64242554 C-38.39476318 324.61890991 -38.99417725 323.59539429 -39.61175537 322.54086304 C-43.24013587 315.21415736 -43.52522747 308.86454521 -43.50700378 300.80058289 C-43.51224046 299.65150694 -43.51747714 298.50243099 -43.52287251 297.31853455 C-43.53786489 293.47114065 -43.53857751 289.62387984 -43.53924561 285.77645874 C-43.54578867 283.01660022 -43.55524663 280.25675316 -43.56446838 277.49690247 C-43.58727986 270.00088309 -43.59523483 262.50489209 -43.60029483 255.00884271 C-43.60355631 250.32429793 -43.61008152 245.63976132 -43.61729622 240.95522118 C-43.63685707 227.9733332 -43.65326431 214.9914528 -43.65617275 202.00954914 C-43.65636032 201.17944736 -43.65654789 200.34934558 -43.65674115 199.4940892 C-43.65710739 197.81142851 -43.65747108 196.12876782 -43.65783226 194.44610713 C-43.65801507 193.61088488 -43.65819788 192.77566263 -43.65838623 191.91513062 C-43.65865705 190.66075992 -43.65865705 190.66075992 -43.65893335 189.3810484 C-43.66247381 175.83568934 -43.68949043 162.29048938 -43.72688412 148.74518547 C-43.76500886 134.82314464 -43.78433053 120.90118266 -43.78463227 106.97908849 C-43.78521589 99.16847259 -43.79364682 91.35804652 -43.82262993 83.54747963 C-43.84719966 76.89590064 -43.8543892 70.24458071 -43.8393824 63.59296856 C-43.83223592 60.20285714 -43.83571812 56.8136709 -43.855793 53.42354965 C-43.87627993 49.73831988 -43.8656839 46.05440052 -43.84757996 42.3691864 C-43.86077992 41.31166792 -43.87397989 40.25414943 -43.88757986 39.16458493 C-43.76056698 27.79114367 -39.55237311 18.59187466 -31.69769287 10.46273804 C-21.9185191 1.75291925 -12.69476275 -0.03427405 0 0 Z " fill="#007AC5" transform="translate(373.23284912109375,188.73257446289063)"/>
<path d="M0 0 C0.81204895 -0.00006042 1.6240979 -0.00012085 2.46075439 -0.00018311 C33.76831262 0.03295964 33.76831262 0.03295964 47 4.1875 C47 7.8175 47 11.4475 47 15.1875 C44.47666016 15.24357422 44.47666016 15.24357422 41.90234375 15.30078125 C-2.6340911 16.48807159 -42.60651584 27.39011393 -82 48.1875 C-82.71220703 48.55955566 -83.42441406 48.93161133 -84.15820312 49.31494141 C-101.9346271 58.65806188 -117.68624816 70.24573925 -133 83.1875 C-133.84304688 83.89777344 -134.68609375 84.60804688 -135.5546875 85.33984375 C-148.3182374 96.49138822 -160.75173989 108.6716787 -171 122.1875 C-172.00896317 123.46989492 -173.01951305 124.75104231 -174.03125 126.03125 C-204.55588681 164.51330345 -204.55588681 164.51330345 -219 209.1875 C-215.31860864 205.06894341 -211.73656581 200.89821435 -208.3125 196.5625 C-200.93499187 187.28342485 -193.32541122 178.26936188 -184.81640625 170.00390625 C-182.87108115 168.13071986 -182.87108115 168.13071986 -180.9375 165.5625 C-178.58098571 162.67386958 -175.8934021 160.41459296 -173.0625 158 C-171.17431113 156.34068251 -169.43006635 154.62208814 -167.6875 152.8125 C-163.61579582 148.68589643 -159.14631742 145.10054624 -154.62011719 141.48681641 C-152.87647125 140.08843128 -151.14495691 138.67585118 -149.4140625 137.26171875 C-141.51689268 130.83634557 -133.49102062 124.81741585 -125 119.1875 C-124.45021484 118.82060059 -123.90042969 118.45370117 -123.33398438 118.07568359 C-72.4164166 84.20404897 -14.17481624 65.21349803 47 66.1875 C47.02686553 68.16659398 47.04633375 70.14578971 47.0625 72.125 C47.07410156 73.22714844 47.08570313 74.32929688 47.09765625 75.46484375 C47 78.1875 47 78.1875 46 79.1875 C44.45532821 79.41480767 42.90213495 79.5846069 41.34765625 79.73046875 C-12.1901341 85.17956342 -59.82375808 107.20056287 -102 140.1875 C-102.94746094 140.92097656 -103.89492188 141.65445313 -104.87109375 142.41015625 C-131.13581333 163.28924239 -152.09354337 188.71543573 -169.66015625 217.1484375 C-171 219.1875 -171 219.1875 -173 221.1875 C-174.88642788 221.44197559 -174.88642788 221.44197559 -177.22862244 221.44819641 C-178.11578949 221.45528122 -179.00295654 221.46236603 -179.91700745 221.46966553 C-181.38109291 221.4659494 -181.38109291 221.4659494 -182.87475586 221.4621582 C-183.90101074 221.46726913 -184.92726563 221.47238007 -185.98461914 221.47764587 C-189.39475258 221.49160157 -192.80468505 221.49057942 -196.21484375 221.48828125 C-198.58460058 221.49216732 -200.95435671 221.4965018 -203.32411194 221.50126648 C-208.30341848 221.50874329 -213.28265416 221.50842861 -218.26196289 221.50317383 C-224.62374797 221.49740309 -230.98523964 221.51424511 -237.34697628 221.5375185 C-242.24825216 221.55230528 -247.1494584 221.55312037 -252.05075264 221.55000877 C-254.39455301 221.55052035 -256.73835746 221.55572729 -259.08213615 221.56582069 C-262.37517718 221.57825162 -265.66766027 221.57135137 -268.96069336 221.55981445 C-269.91853226 221.56745819 -270.87637115 221.57510193 -271.86323547 221.58297729 C-280.44088828 221.51704487 -288.98853182 219.9505767 -296.375 215.375 C-297.14585937 214.91480469 -297.91671875 214.45460938 -298.7109375 213.98046875 C-301.64345268 211.68349867 -303.69289592 209.11010358 -306 206.1875 C-291.02304625 164.3787425 -268.21388636 125.15439721 -236 94.1875 C-233.50328504 91.710985 -231.0303649 89.21919799 -228.59765625 86.6796875 C-222.08191052 79.9531087 -215.16817326 74.11304228 -207.69921875 68.47216797 C-206.11464763 67.27417756 -204.54123435 66.06146827 -202.96875 64.84765625 C-153.56987238 27.06813829 -92.54124171 7.07297464 -31 1.1875 C-30.02933594 1.09251221 -29.05867188 0.99752441 -28.05859375 0.8996582 C-18.70480076 0.07651857 -9.38237653 -0.01072544 0 0 Z " fill="#F4F9FB" transform="translate(647,314.8125)"/>
<path d="M0 0 C0 16.17 0 32.34 0 49 C-5.445 49.4125 -10.89 49.825 -16.5 50.25 C-56.26488957 53.48147848 -93.93554768 62.63698848 -130 80 C-130.82161621 80.38768555 -131.64323242 80.77537109 -132.48974609 81.17480469 C-144.52880226 86.86684247 -155.82911758 93.33221468 -166.95068359 100.65283203 C-168.7459699 101.83300713 -170.55365945 102.99426987 -172.36328125 104.15234375 C-179.70430818 108.90699563 -186.55208588 114.19314539 -193.35546875 119.67578125 C-194.85649529 120.88444633 -196.36534886 122.08337464 -197.875 123.28125 C-203.75559121 127.99939876 -209.32099031 132.97686415 -214.76196289 138.19116211 C-218.78774029 142 -218.78774029 142 -221 142 C-221.268125 142.639375 -221.53625 143.27875 -221.8125 143.9375 C-223 146 -223 146 -226 147 C-226.33 147.99 -226.66 148.98 -227 150 C-227.66 150 -228.32 150 -229 150 C-229.22558594 150.55558594 -229.45117188 151.11117187 -229.68359375 151.68359375 C-231.38894414 154.68440319 -233.56706316 156.67937537 -236.0625 159.0625 C-241.5041443 164.37187595 -246.2757985 170.04046847 -251 176 C-253.26385447 178.81816845 -255.53787467 181.62802347 -257.8125 184.4375 C-258.36405762 185.12416748 -258.91561523 185.81083496 -259.48388672 186.51831055 C-262.17935232 189.85408305 -264.87870971 193.04497699 -268 196 C-266.65836992 190.03719963 -264.78559449 184.6099839 -262.375 179 C-262.02308594 178.1740332 -261.67117188 177.34806641 -261.30859375 176.49707031 C-258.13902907 169.15123759 -254.67207539 161.98591671 -250.97802734 154.89111328 C-250.02552915 153.04936316 -249.09886583 151.1964742 -248.17578125 149.33984375 C-240.41668486 133.97999987 -230.23669191 119.90911764 -219.33740234 106.62988281 C-218.46235786 105.56347227 -217.59265164 104.49265333 -216.72900391 103.41699219 C-202.91896324 86.25119116 -186.80366465 69.98699684 -169 57 C-168.01128906 56.20464844 -167.02257812 55.40929687 -166.00390625 54.58984375 C-124.65730232 21.35454811 -54.27807167 -10.85561433 0 0 Z " fill="#0F9544" transform="translate(694,331)"/>
<path d="M0 0 C0 18.48 0 36.96 0 56 C-8.91 56.66 -17.82 57.32 -27 58 C-86.1159648 66.27010907 -138.59114855 91.34600012 -182.03515625 132.1484375 C-182.5237915 132.59727295 -183.01242676 133.0461084 -183.51586914 133.50854492 C-185.0672159 135.00117474 -185.0672159 135.00117474 -186.43530273 136.8918457 C-189.08120058 140.15948207 -190.86274251 141.79520547 -195.08569336 142.55566406 C-198.72758791 142.68862252 -202.29756578 142.61119377 -205.9375 142.4375 C-207.19369141 142.40591797 -208.44988281 142.37433594 -209.74414062 142.34179688 C-212.83184881 142.25961453 -215.91469797 142.1447677 -219 142 C-217.81100241 138.86038261 -216.53367219 136.03572402 -214.71484375 133.21484375 C-214.0496875 132.18085449 -214.0496875 132.18085449 -213.37109375 131.12597656 C-212.89800781 130.4037793 -212.42492187 129.68158203 -211.9375 128.9375 C-211.19886719 127.80586426 -211.19886719 127.80586426 -210.4453125 126.65136719 C-196.28099132 105.13953314 -178.75058566 84.5880115 -159 68 C-158.20408447 67.32541748 -158.20408447 67.32541748 -157.39208984 66.63720703 C-114.23735496 30.2051283 -57.63810139 0 0 0 Z " fill="#0F9544" transform="translate(694,394)"/>
<path d="M0 0 C68.32692308 0 68.32692308 0 80.734375 11.625 C88.68651993 20.12828369 90.36793902 30.06945399 90.28515625 41.3515625 C89.43232825 52.26308792 84.15429223 60.33096002 76.1953125 67.484375 C73.58716125 69.28502034 71.00893001 70.04851505 68 71 C68.5416404 71.82019119 68.5416404 71.82019119 69.09422302 72.6569519 C72.84254928 78.33341102 76.58933078 84.01088741 80.33520508 89.68896484 C81.73454593 91.8096707 83.13428432 93.93011431 84.53442383 96.05029297 C86.54351989 99.09274003 88.55119794 102.13611845 90.55859375 105.1796875 C91.18777206 106.13181122 91.81695038 107.08393494 92.4651947 108.06491089 C93.04572098 108.94567291 93.62624725 109.82643494 94.22436523 110.73388672 C94.73732651 111.51110077 95.25028778 112.28831482 95.77879333 113.08908081 C97 115 97 115 98 117 C71.88279105 120.14053942 71.88279105 120.14053942 64.44921875 115.359375 C59.53181386 110.12190233 56.85280474 103.5046134 54 97 C52.60925241 94.12387964 51.17089114 91.29514956 49.64331055 88.48925781 C48.1875 85.8125 48.1875 85.8125 47.00708008 83.18652344 C45.63811051 80.31176807 45.63811051 80.31176807 42 77 C36.72 76.67 31.44 76.34 26 76 C26 89.53 26 103.06 26 117 C17.42 117 8.84 117 0 117 C0 78.39 0 39.78 0 0 Z " fill="#007AC5" transform="translate(232,572)"/>
<path d="M0 0 C24 0 24 0 28.8125 4 C29.92503755 5.97260398 30.98228975 7.97684106 32 10 C33.23585834 11.88631009 34.53091446 13.72217077 35.83447266 15.56225586 C37.27661609 17.60011049 38.68220298 19.65945237 40.08203125 21.7265625 C42.98722793 25.99689869 45.95317994 30.22219655 48.9375 34.4375 C49.43314453 35.13770264 49.92878906 35.83790527 50.43945312 36.55932617 C51.44819901 37.98386981 52.45715177 39.40826698 53.46630859 40.83251953 C55.02900613 43.04099275 56.58740428 45.25243993 58.14453125 47.46484375 C58.66474854 48.20355713 59.18496582 48.94227051 59.72094727 49.70336914 C60.694655 51.08627354 61.66785513 52.46953558 62.64038086 53.85327148 C66.7008905 59.61497103 70.85239859 65.29704806 75 71 C75.33 47.57 75.66 24.14 76 0 C84.25 0 92.5 0 101 0 C101 38.61 101 77.22 101 117 C93.08 117 85.16 117 77 117 C69.13544101 106.88842416 69.13544101 106.88842416 66.2734375 102.72265625 C65.32440552 101.34799194 65.32440552 101.34799194 64.35620117 99.94555664 C63.70240479 98.99414795 63.0486084 98.04273926 62.375 97.0625 C57.38502643 89.84125156 52.35265028 82.65958728 47.1875 75.5625 C39.89245265 65.53110726 32.87989079 55.31983619 26 45 C25.67 68.76 25.34 92.52 25 117 C16.75 117 8.5 117 0 117 C0 78.39 0 39.78 0 0 Z " fill="#017AC5" transform="translate(693,572)"/>
<path d="M0 0 C24 0 24 0 29.375 5.125 C30.62910841 7.39194015 31.8362845 9.68535709 33 12 C34.52238778 14.29062045 36.1706582 16.48159179 37.8125 18.6875 C38.65826848 19.87002793 39.50064647 21.0549872 40.33984375 22.2421875 C40.77151855 22.8515918 41.20319336 23.46099609 41.64794922 24.08886719 C42.09412598 24.71954102 42.54030273 25.35021484 43 26 C43.46809082 26.66161133 43.93618164 27.32322266 44.41845703 28.00488281 C49.00302159 34.4885699 53.57767858 40.97923153 58.1484375 47.47265625 C66.43355769 60.27811268 66.43355769 60.27811268 76 72 C76 48.24 76 24.48 76 0 C84.25 0 92.5 0 101 0 C101 38.61 101 77.22 101 117 C77 117 77 117 72.3125 113.1875 C71.16391194 111.14940389 70.06710195 109.08191828 69 107 C67.52620625 104.75613973 65.99092328 102.56204775 64.44970703 100.36401367 C62.72833749 97.90657446 61.0427157 95.4276563 59.36328125 92.94140625 C56.27146699 88.38313286 53.12121544 83.86944112 49.9375 79.375 C49.45104004 78.68784912 48.96458008 78.00069824 48.46337891 77.29272461 C46.97658903 75.19443642 45.48840401 73.09714345 44 71 C41.87322476 68.00125343 39.74865628 65.00095586 37.625 62 C37.14925537 61.3301709 36.67351074 60.6603418 36.18334961 59.97021484 C32.69146355 55.03596156 29.35676066 50.03514099 26 45 C25.67 68.76 25.34 92.52 25 117 C16.75 117 8.5 117 0 117 C0 78.39 0 39.78 0 0 Z " fill="#027BC5" transform="translate(446,572)"/>
<path d="M0 0 C9.9 0 19.8 0 30 0 C33.25059432 7.80142636 36.37471066 15.54163401 39.23046875 23.48046875 C39.81327354 25.08887886 39.81327354 25.08887886 40.40785217 26.7297821 C41.670228 30.21479133 42.92883336 33.70114965 44.1875 37.1875 C45.96591475 42.10081638 47.7464836 47.01335077 49.52734375 51.92578125 C49.75259357 52.54748199 49.9778434 53.16918274 50.20991898 53.8097229 C53.55510404 63.04202266 56.92484899 72.26508714 60.31640625 81.48046875 C60.73597092 82.62051865 61.15553558 83.76056854 61.58781433 84.93516541 C63.59400517 90.38374287 65.60304606 95.83126015 67.61401367 101.27807617 C68.3312413 103.22443783 69.0484464 105.17080778 69.765625 107.1171875 C70.2609951 108.45531746 70.2609951 108.45531746 70.76637268 109.82048035 C73 115.88694312 73 115.88694312 73 117 C63.43 117 53.86 117 44 117 C40.04 106.11 40.04 106.11 36 95 C21.81 95 7.62 95 -7 95 C-9.64 102.26 -12.28 109.52 -15 117 C-23.91 117 -32.82 117 -42 117 C-40.71638722 111.22374247 -39.58091189 106.42823684 -37.55078125 101.0234375 C-37.30525513 100.36357346 -37.059729 99.70370941 -36.8067627 99.02384949 C-36.26657922 97.57372102 -35.72376249 96.12457134 -35.17861938 94.67630005 C-33.62777035 90.55565684 -32.09669871 86.42764597 -30.5625 82.30078125 C-30.21814407 81.37609543 -29.87378815 80.45140961 -29.51899719 79.498703 C-26.33014083 70.92259429 -23.19278214 62.32807715 -20.0625 53.73046875 C-19.54322964 52.30474799 -19.02395779 50.87902778 -18.50468445 49.45330811 C-16.42133348 43.73223203 -14.3387733 38.01086971 -12.25894165 32.28851318 C-11.01896632 28.87712832 -9.7770853 25.4664425 -8.53395081 22.05620766 C-7.85082437 20.18050761 -7.1698277 18.30403233 -6.4888916 16.42753601 C-5.86560974 14.71845818 -5.86560974 14.71845818 -5.22973633 12.97485352 C-4.8700325 11.98582535 -4.51032867 10.99679718 -4.13972473 9.97779846 C-2.8525958 6.61487191 -1.41843638 3.3096849 0 0 Z " fill="#017AC5" transform="translate(606,572)"/>
<path d="M0 0 C26.07 0 52.14 0 79 0 C79 7.92 79 15.84 79 24 C61.84 24 44.68 24 27 24 C27 31.92 27 39.84 27 48 C41.85 48 56.7 48 72 48 C72 55.26 72 62.52 72 70 C71 71 71 71 69.24729919 71.12025452 C68.10479454 71.1169236 68.10479454 71.1169236 66.93920898 71.11352539 C66.07839218 71.11344986 65.21757538 71.11337433 64.33067322 71.11329651 C63.39526199 71.10813522 62.45985077 71.10297394 61.49609375 71.09765625 C60.54307877 71.0962413 59.59006378 71.09482635 58.60816956 71.09336853 C55.55124835 71.08775152 52.49439923 71.07519616 49.4375 71.0625 C47.37044376 71.05748719 45.30338638 71.05292391 43.23632812 71.04882812 C38.15750167 71.03862558 33.07883194 71.01905356 28 71 C27.67 78.59 27.34 86.18 27 94 C44.49 94 61.98 94 80 94 C79.67 101.59 79.34 109.18 79 117 C52.93 117 26.86 117 0 117 C0 78.39 0 39.78 0 0 Z " fill="#007AC5" transform="translate(346,572)"/>
<path d="M0 0 C11.30109531 8.06643476 17.39269352 19.0390227 19.92578125 32.5390625 C21.32992827 46.24013345 17.56696183 58.34049166 9.05078125 69.1953125 C0.39340464 78.53579934 -10.14035644 83.38660572 -22.734375 84.4921875 C-34.91601147 84.93072641 -46.12912622 80.33719288 -55.5 72.6875 C-65.32918439 63.28644706 -69.58592938 51.08866571 -70.0625 37.6875 C-69.70382245 26.94276803 -65.73755534 15.54381461 -58.6875 7.3125 C-58.0275 7.3125 -57.3675 7.3125 -56.6875 7.3125 C-56.3575 6.3225 -56.0275 5.3325 -55.6875 4.3125 C-39.82564146 -9.75429225 -17.83677256 -10.83485846 0 0 Z " fill="#F5F9FC" transform="translate(529.6875,237.6875)"/>
<path d="M0 0 C1.24749023 0.00620361 2.49498047 0.01240723 3.78027344 0.01879883 C4.72418945 0.0267749 5.66810547 0.03475098 6.640625 0.04296875 C6.74083406 4.78940944 6.81271223 9.53521078 6.86035156 14.2824707 C6.88024738 15.89130401 6.90737429 17.50006717 6.94238281 19.10864258 C7.22000484 32.20995289 5.98726085 43.76063513 -1.359375 55.04296875 C-2.019375 55.04296875 -2.679375 55.04296875 -3.359375 55.04296875 C-3.59269531 55.62949219 -3.82601562 56.21601562 -4.06640625 56.8203125 C-7.9083151 63.42468148 -17.26265734 67.65809838 -24.43217468 69.60618591 C-28.74988085 70.25045339 -33.02266402 70.17307702 -37.38208008 70.15649414 C-38.38742798 70.15664017 -39.39277588 70.15678619 -40.42858887 70.15693665 C-43.74538342 70.15624103 -47.06212153 70.148465 -50.37890625 70.140625 C-52.68104522 70.13875958 -54.98318459 70.13733626 -57.2853241 70.13633728 C-63.3400889 70.13252191 -69.39482965 70.12269995 -75.44958496 70.1116333 C-81.62979812 70.10139814 -87.81001518 70.09683515 -93.99023438 70.09179688 C-106.11329181 70.08107683 -118.2363314 70.06401214 -130.359375 70.04296875 C-129.39700561 68.91692699 -128.43417389 67.79128033 -127.47114563 66.665802 C-126.66695426 65.72547214 -126.66695426 65.72547214 -125.84651661 64.76614571 C-115.97229932 53.32471768 -104.63788317 43.78384803 -92.359375 35.04296875 C-91.72 34.5855127 -91.080625 34.12805664 -90.421875 33.65673828 C-65.00701584 15.64792792 -31.70889579 -0.20517521 0 0 Z " fill="#0F9544" transform="translate(687.359375,465.95703125)"/>
<path d="M0 0 C0.76570312 0.00451172 1.53140625 0.00902344 2.3203125 0.01367188 C4.17191037 0.02524436 6.02346688 0.04316845 7.875 0.0625 C7.875 5.0125 7.875 9.9625 7.875 15.0625 C4.97460938 15.49949219 4.97460938 15.49949219 2.015625 15.9453125 C-39.86925669 22.4491091 -78.53791108 37.84490354 -110 67.125 C-110.4569072 67.54302887 -110.91381439 67.96105774 -111.38456726 68.39175415 C-114.09020741 70.92608959 -116.45699944 73.41950258 -118.58911133 76.45751953 C-122.24769538 81.34626097 -125.90115554 85.30290339 -132.02148438 86.7449646 C-140.31645927 87.69214957 -148.61784571 87.247151 -156.9375 86.875 C-159.47966938 86.80969984 -162.02200038 86.75040029 -164.56445312 86.69726562 C-170.75486374 86.55492506 -176.93917012 86.33822414 -183.125 86.0625 C-181.30208431 82.12535902 -178.7558858 79.38799108 -175.6875 76.375 C-175.15108887 75.84463135 -174.61467773 75.3142627 -174.06201172 74.76782227 C-169.01989474 69.84808677 -163.66673306 65.40925019 -158.125 61.0625 C-157.03285637 60.18092219 -155.94175404 59.29805319 -154.8515625 58.4140625 C-112.25012488 24.08598264 -55.3708873 -0.63813966 0 0 Z " fill="#F3F8FB" transform="translate(686.125,449.9375)"/>
<path d="M0 0 C6.40092273 5.96104889 9.03892678 12.05850775 9.40185547 20.76464844 C9.55145944 29.62202346 7.86093172 36.23178047 3.3125 43.8125 C-3.26200591 50.03162721 -10.47486908 52.35035087 -19.34765625 52.20703125 C-27.54689367 51.56703186 -33.59409672 48.1641974 -39 42 C-44.29478332 33.79767671 -44.74762602 25.61530131 -44 16 C-42.26438176 8.92546912 -39.02602352 2.48170294 -32.66796875 -1.4375 C-21.89528562 -7.12263412 -10.09762485 -7.47224239 0 0 Z " fill="#0D923F" transform="translate(741,724)"/>
<path d="M0 0 C6.24360058 3.87103236 11.78874346 8.04151201 14.5 15.0859375 C16.39229561 23.71953621 16.74199053 34.17212284 12.390625 42.078125 C8.10681008 48.37163087 4.34565728 52.3854127 -3.1875 54.625 C-11.51588074 55.59341636 -18.88415354 55.20278784 -26.078125 50.49609375 C-31.98682411 45.7800765 -34.49048718 40.55254273 -36.625 33.4375 C-37.56255562 24.06194379 -36.64231056 15.65746238 -31.3125 7.625 C-23.7765846 -1.45863397 -11.0633036 -4.02532099 0 0 Z " fill="#0D923F" transform="translate(337.875,795.0625)"/>
<path d="M0 0 C4.95 0 9.9 0 15 0 C16.67264057 4.03837839 18.34509694 8.07683207 20.01708984 12.11547852 C20.58534189 13.48791879 21.15369987 14.86031521 21.72216797 16.23266602 C22.54162339 18.21098352 23.36069139 20.18946106 24.1796875 22.16796875 C24.67194824 23.35672607 25.16420898 24.5454834 25.67138672 25.77026367 C26.1098291 26.83607666 26.54827148 27.90188965 27 29 C27.38816895 29.90403564 27.77633789 30.80807129 28.17626953 31.73950195 C29 34 29 34 29 37 C29.66 37 30.32 37 31 37 C31.16326782 35.9941687 31.16326782 35.9941687 31.32983398 34.96801758 C32.14609207 31.35299043 33.40429532 27.96564741 34.72265625 24.51171875 C34.98759384 23.80852005 35.25253143 23.10532135 35.52549744 22.3808136 C36.3675549 20.14832553 37.21494143 17.91790462 38.0625 15.6875 C38.6364214 14.1687534 39.20999294 12.64987455 39.78320312 11.13085938 C41.18410811 7.41876527 42.5922095 3.70951734 44 0 C49.28 0 54.56 0 60 0 C60 18.48 60 36.96 60 56 C56.04 56 52.08 56 48 56 C48 43.79 48 31.58 48 19 C46.60974609 22.88072266 46.60974609 22.88072266 45.19140625 26.83984375 C44.29519297 29.33544946 43.39801072 31.83070478 42.50073242 34.32592773 C41.87601838 36.06482083 41.25231772 37.80407833 40.62963867 39.54370117 C39.73620361 42.03920675 38.83917284 44.53339371 37.94140625 47.02734375 C37.6622084 47.80963852 37.38301056 48.59193329 37.09535217 49.39793396 C35.11387171 54.88612829 35.11387171 54.88612829 34 56 C32.48071962 56.07179964 30.95832518 56.08392007 29.4375 56.0625 C28.61121094 56.05347656 27.78492188 56.04445313 26.93359375 56.03515625 C26.29550781 56.02355469 25.65742188 56.01195312 25 56 C23.76615016 52.96021341 22.53887152 49.91781048 21.3125 46.875 C20.80299805 45.62009766 20.80299805 45.62009766 20.28320312 44.33984375 C17.30981431 36.94805473 14.68669497 29.52274592 12 22 C11.67 33.22 11.34 44.44 11 56 C7.37 56 3.74 56 0 56 C0 37.52 0 19.04 0 0 Z " fill="#0D9340" transform="translate(430,719)"/>
<path d="M0 0 C31.57142857 0 31.57142857 0 38 5.625 C40.47691665 9.80479684 41.3119219 13.15654609 41 18 C39.50831386 22.10213689 38.64397687 23.57068209 35 26 C35.763125 26.515625 36.52625 27.03125 37.3125 27.5625 C40.62380522 30.56577683 41.73478837 32.71233836 43 37 C43.2600682 42.9711659 42.01725618 47.43987136 38 52 C26.03094491 59.23130412 15.09248434 56 0 56 C0 37.52 0 19.04 0 0 Z " fill="#0D9240" transform="translate(511,719)"/>
<path d="M0 0 C4.62 0 9.24 0 14 0 C18.0198076 7.69195616 21.25760359 15.50718736 24.3125 23.625 C25.859375 27.70875 27.40625 31.7925 29 36 C33.62 24.12 38.24 12.24 43 0 C47.95 0 52.9 0 58 0 C58 18.15 58 36.3 58 55 C54.37 55 50.74 55 47 55 C46.67 43.78 46.34 32.56 46 21 C45.14535156 23.37058594 44.29070312 25.74117187 43.41015625 28.18359375 C42.58343814 30.47070376 41.7557561 32.75746272 40.92797852 35.04418945 C40.35177234 36.63757426 39.77657406 38.23132392 39.20239258 39.82543945 C38.3784428 42.11245105 37.55091544 44.39813989 36.72265625 46.68359375 C36.46533218 47.40026718 36.20800812 48.11694061 35.94288635 48.85533142 C34.11387171 53.88612829 34.11387171 53.88612829 33 55 C30.03 55 27.06 55 24 55 C19.71 43.45 15.42 31.9 11 20 C11 31.55 11 43.1 11 55 C7.37 55 3.74 55 0 55 C0 36.85 0 18.7 0 0 Z " fill="#0D923F" transform="translate(461,794)"/>
<path d="M0 0 C4.62 0 9.24 0 14 0 C17.74709008 7.13731444 20.74295334 14.52579217 23.75 22 C24.26142028 23.26444368 24.7731368 24.52876758 25.28515625 25.79296875 C26.52634699 28.86081755 27.76454092 31.92983955 29 35 C29.58285767 33.46291382 29.58285767 33.46291382 30.17749023 31.89477539 C31.61536867 28.10500364 33.05677418 24.31658176 34.49926758 20.52856445 C35.12393456 18.88668021 35.74763524 17.244428 36.37036133 15.60180664 C37.26391864 13.24528916 38.16090534 10.89010261 39.05859375 8.53515625 C39.3377916 7.79660904 39.61698944 7.05806183 39.90464783 6.2971344 C41.88612829 1.11387171 41.88612829 1.11387171 43 0 C47.95 0 52.9 0 58 0 C58 18.15 58 36.3 58 55 C54.37 55 50.74 55 47 55 C46.67 43.78 46.34 32.56 46 21 C41.71 32.22 37.42 43.44 33 55 C30.03 55 27.06 55 24 55 C22.46847509 50.98041616 20.93858359 46.96021551 19.41015625 42.93945312 C18.89074043 41.57372545 18.37089048 40.20816279 17.85058594 38.84277344 C17.09974859 36.87218499 16.35051101 34.90099448 15.6015625 32.9296875 C15.15119629 31.74616699 14.70083008 30.56264648 14.23681641 29.34326172 C13.0932243 26.25199636 12.04229192 23.12687576 11 20 C10.67 31.55 10.34 43.1 10 55 C6.7 55 3.4 55 0 55 C0 36.85 0 18.7 0 0 Z " fill="#0D923F" transform="translate(377,794)"/>
<path d="M0 0 C1.06476562 -0.020625 2.12953125 -0.04125 3.2265625 -0.0625 C11.18338435 -0.10159986 18.09810165 0.49952899 24.4375 5.625 C27.92749771 10.06681527 28.92885287 13.54633945 28.74609375 19.265625 C28.1503825 24.0691379 25.89987673 27.09735581 22.3125 30.125 C21.384375 30.82625 20.45625 31.5275 19.5 32.25 C22.84684316 39.3781323 26.72905796 46.01211215 30.92578125 52.66015625 C32.5 55.25 32.5 55.25 32.5 56.25 C28.05416111 56.78429221 23.92968206 56.99711145 19.5 56.25 C16.47737542 53.80167409 15.13756171 50.72921123 13.5 47.25 C12.3807681 45.0694729 11.23417923 42.90279963 10.0625 40.75 C9.54816406 39.7290625 9.03382813 38.708125 8.50390625 37.65625 C6.26247969 34.41820944 6.26247969 34.41820944 -0.5 34.25 C-0.5 41.51 -0.5 48.77 -0.5 56.25 C-4.46 56.25 -8.42 56.25 -12.5 56.25 C-12.52463956 48.43546786 -12.54283105 40.62095812 -12.55493164 32.80639648 C-12.55997383 30.14558519 -12.56680736 27.48477668 -12.57543945 24.82397461 C-12.58751009 21.00894484 -12.59322929 17.19395156 -12.59765625 13.37890625 C-12.60281754 12.18100967 -12.60797882 10.9831131 -12.61329651 9.74891663 C-12.61337204 8.6478508 -12.61344757 7.54678497 -12.61352539 6.41235352 C-12.615746 5.43750504 -12.61796661 4.46265656 -12.62025452 3.45826721 C-12.31848632 -2.08318634 -4.20919562 0.01980798 0 0 Z " fill="#0D9341" transform="translate(638.5,718.75)"/>
<path d="M0 0 C29.28947368 0 29.28947368 0 35.9375 5.375 C39.42996552 9.81995611 40.41549286 13.29155286 40.25390625 19.01171875 C39.60656885 24.08086853 36.82819071 27.7892594 33 31 C32.34 31 31.68 31 31 31 C34.34684316 38.1281323 38.22905796 44.76211215 42.42578125 51.41015625 C44 54 44 54 44 55 C39.4433555 55.81269422 35.52200924 56.10848795 31 55 C27.3497991 51.13910108 25.22004831 46.76755374 23 42 C21.78187933 39.41572317 20.65818293 37.35354996 19 35 C15.535 34.505 15.535 34.505 12 34 C12 40.93 12 47.86 12 55 C8.04 55 4.08 55 0 55 C0 36.85 0 18.7 0 0 Z " fill="#0E9341" transform="translate(610,794)"/>
<path d="M0 0 C4.62 0 9.24 0 14 0 C16.69243828 7.16981976 19.37989098 14.34148067 22.06274414 21.51489258 C22.97608907 23.95485845 23.89079341 26.39431591 24.80688477 28.83325195 C26.12353656 32.33932797 27.43528617 35.84720427 28.74609375 39.35546875 C29.36175453 40.99010323 29.36175453 40.99010323 29.98985291 42.65776062 C30.37017166 43.67844131 30.75049042 44.69912201 31.14233398 45.75073242 C31.47764633 46.64563889 31.81295868 47.54054535 32.15843201 48.46257019 C33 51 33 51 34 56 C29.71 56 25.42 56 21 56 C18 47.375 18 47.375 18 44 C10.74 44 3.48 44 -4 44 C-4.474375 45.794375 -4.94875 47.58875 -5.4375 49.4375 C-6.875 54.875 -6.875 54.875 -8 56 C-10.01964199 56.07244053 -12.04167124 56.08377188 -14.0625 56.0625 C-15.16722656 56.05347656 -16.27195312 56.04445313 -17.41015625 56.03515625 C-18.69212891 56.01775391 -18.69212891 56.01775391 -20 56 C-17.95754492 48.86662053 -15.58286416 41.91084017 -12.98828125 34.9609375 C-12.61519333 33.95406891 -12.24210541 32.94720032 -11.85771179 31.90982056 C-10.67887341 28.73046222 -9.49576316 25.55271386 -8.3125 22.375 C-7.50687718 20.20453258 -6.70153594 18.03396062 -5.89648438 15.86328125 C-3.93424108 10.57430736 -1.96816803 5.28677184 0 0 Z " fill="#0D923F" transform="translate(380,719)"/>
<path d="M0 0 C3.63 0 7.26 0 11 0 C11 7.59 11 15.18 11 23 C18.92 22.67 26.84 22.34 35 22 C35.33 14.74 35.66 7.48 36 0 C39.63 0 43.26 0 47 0 C47 18.48 47 36.96 47 56 C43.37 56 39.74 56 36 56 C36 48.41 36 40.82 36 33 C27.75 33 19.5 33 11 33 C11 40.59 11 48.18 11 56 C7.37 56 3.74 56 0 56 C0 37.52 0 19.04 0 0 Z " fill="#0D923F" transform="translate(297,719)"/>
<path d="M0 0 C11.88 0 23.76 0 36 0 C36 3.3 36 6.6 36 10 C28.08 10.33 20.16 10.66 12 11 C12 14.63 12 18.26 12 22 C18.93 22.33 25.86 22.66 33 23 C33 25.97 33 28.94 33 32 C22.605 32.495 22.605 32.495 12 33 C11.67 37.29 11.34 41.58 11 46 C19.58 46 28.16 46 37 46 C37 49.3 37 52.6 37 56 C24.79 56 12.58 56 0 56 C0 37.52 0 19.04 0 0 Z " fill="#0D923E" transform="translate(572,719)"/>
<path d="M0 0 C1.47583955 0.0001591 2.95168467 0.00585225 4.42749023 0.01586914 C5.20293686 0.01728409 5.97838348 0.01869904 6.77732849 0.02015686 C9.26361893 0.02577194 11.74982059 0.03832693 14.23608398 0.05102539 C15.91772331 0.05603845 17.59936405 0.06060169 19.28100586 0.06469727 C23.41189965 0.07574626 27.54272674 0.09302094 31.67358398 0.11352539 C31.67358398 3.41352539 31.67358398 6.71352539 31.67358398 10.11352539 C23.75358398 10.11352539 15.83358398 10.11352539 7.67358398 10.11352539 C7.67358398 14.40352539 7.67358398 18.69352539 7.67358398 23.11352539 C14.60358398 23.11352539 21.53358398 23.11352539 28.67358398 23.11352539 C28.67358398 26.08352539 28.67358398 29.05352539 28.67358398 32.11352539 C21.74358398 32.11352539 14.81358398 32.11352539 7.67358398 32.11352539 C7.67358398 36.40352539 7.67358398 40.69352539 7.67358398 45.11352539 C15.92358398 45.11352539 24.17358398 45.11352539 32.67358398 45.11352539 C32.67358398 48.41352539 32.67358398 51.71352539 32.67358398 55.11352539 C20.46358398 55.11352539 8.25358398 55.11352539 -4.32641602 55.11352539 C-4.34931797 47.44136934 -4.36924722 39.76933092 -4.38134766 32.09716797 C-4.38638978 29.4848592 -4.39322327 26.87255328 -4.40185547 24.26025391 C-4.41392637 20.51472271 -4.41964537 16.76922867 -4.42407227 13.02368164 C-4.42923355 11.84765884 -4.43439484 10.67163605 -4.43971252 9.4599762 C-4.43982582 7.83840858 -4.43982582 7.83840858 -4.43994141 6.18408203 C-4.44216202 5.22699844 -4.44438263 4.26991486 -4.44667053 3.28382874 C-4.24911596 -0.28155375 -3.684233 0.12573713 0 0 Z " fill="#0D923F" transform="translate(754.326416015625,793.886474609375)"/>
<path d="M0 0 C11.55 0 23.1 0 35 0 C35 3.3 35 6.6 35 10 C27.41 10 19.82 10 12 10 C12 14.29 12 18.58 12 23 C18.93 23 25.86 23 33 23 C33 25.97 33 28.94 33 32 C26.07 32 19.14 32 12 32 C12 36.29 12 40.58 12 45 C19.92 45 27.84 45 36 45 C36 48.3 36 51.6 36 55 C24.12 55 12.24 55 0 55 C0 36.85 0 18.7 0 0 Z " fill="#0E9340" transform="translate(545,794)"/>
<path d="M0 0 C5.59927798 5.79783394 5.59927798 5.79783394 7 10 C3.04 10.99 -0.92 11.98 -5 13 C-5.99 11.35 -6.98 9.7 -8 8 C-11.03482566 5.63958004 -14.26308247 5.6501524 -18.0390625 5.734375 C-20.84818744 6.11489392 -22.72026855 7.37162039 -25 9 C-25.99 9.33 -26.98 9.66 -28 10 C-31.10851585 17.19866828 -31.2162491 26.14854451 -28.875 33.5625 C-26.07620538 37.20093301 -23.4556295 39.61454846 -18.78515625 40.34765625 C-14.0621312 40.5284043 -10.75928055 40.0958781 -7 37 C-5.21655822 34.93045153 -5.21655822 34.93045153 -4 33 C-0.0507432 33.55105909 3.34920174 34.38935371 7 36 C5.77056192 42.30087016 2.11606476 45.51896625 -3 49 C-10.76095228 52.89418807 -18.34477964 53.0334835 -26.5625 50.5625 C-32.64492539 48.12270524 -36.54489875 44.54679245 -40 39 C-44.42403146 28.6124937 -43.92439866 18.44396418 -40 8 C-36.76431503 1.47960453 -31.59012787 -2.20162901 -24.90625 -4.8203125 C-16.47961265 -7.23228479 -6.64830083 -5.85683645 0 0 Z " fill="#0D923F" transform="translate(274,724)"/>
<path d="M0 0 C4.22264099 3.43214659 7.60761862 6.8845172 8.6484375 12.33984375 C4.98665015 13.34667495 1.45136033 14.17915687 -2.3515625 14.33984375 C-5.4140625 12.02734375 -5.4140625 12.02734375 -7.3515625 9.33984375 C-10.80879796 7.61122602 -14.56468433 7.99139836 -18.3515625 8.33984375 C-22.34209764 9.84737925 -24.6312159 12.24571751 -26.625 16.046875 C-28.55665327 22.14300655 -28.1645573 28.90085935 -26.1640625 34.90234375 C-23.96619792 37.85809266 -22.62825603 39.56496809 -19.3515625 41.33984375 C-13.68366996 42.02272237 -8.5137912 41.97050829 -3.3515625 39.33984375 C-1.99078215 36.81611474 -1.99078215 36.81611474 -1.3515625 34.33984375 C1.9484375 35.32984375 5.2484375 36.31984375 8.6484375 37.33984375 C8.6484375 41.28914006 7.22581931 43.49583623 4.6484375 46.33984375 C-3.15780824 52.52754679 -9.43151136 54.24764684 -19.3515625 53.33984375 C-27.0681657 51.58403694 -31.96354317 47.86686972 -36.3515625 41.33984375 C-41.0201793 32.96734277 -41.60156856 23.42230652 -39.2890625 14.21484375 C-36.98026992 7.38511315 -32.71453908 2.27344998 -26.3515625 -1.16015625 C-18.37835945 -4.22361677 -7.44607709 -4.56844468 0 0 Z " fill="#0D923F" transform="translate(717.3515625,796.66015625)"/>
<path d="M0 0 C4.34232497 2.70552842 8.55180449 6.67078371 10.03515625 11.65625 C10.14730469 12.2440625 10.25945312 12.831875 10.375 13.4375 C6.10883684 14.57514351 2.81013689 15.4375 -1.625 15.4375 C-3.75 13 -3.75 13 -5.625 10.4375 C-8.06454658 9.21772671 -9.77805849 9.23596187 -12.5 9.1875 C-13.36367188 9.16171875 -14.22734375 9.1359375 -15.1171875 9.109375 C-18.09027407 9.49837698 -19.34423125 10.56154302 -21.625 12.4375 C-22.285 12.4375 -22.945 12.4375 -23.625 12.4375 C-25.41637559 17.06224654 -25.92240633 20.98677517 -25.9375 25.9375 C-25.95425781 27.2059375 -25.97101563 28.474375 -25.98828125 29.78125 C-25.50897842 34.60520105 -24.17431281 38.02903381 -20.5625 41.3125 C-15.33447618 43.31472189 -9.90599003 43.4292348 -4.75 41.1875 C-2.56115657 39.38492306 -0.55712143 37.51274154 1.375 35.4375 C5.83 37.4175 5.83 37.4175 10.375 39.4375 C8.54824781 45.24989333 4.95606861 48.63005685 -0.1875 51.6875 C-6.62416778 54.96434905 -13.20800347 55.52698206 -20.25390625 53.7890625 C-27.31817629 51.26533855 -32.34770104 47.6609773 -35.94140625 40.99609375 C-40.02677123 31.2168403 -40.11488027 20.77617181 -36.09375 10.953125 C-28.99384067 -1.20735799 -12.87779111 -5.82626278 0 0 Z " fill="#0D9240" transform="translate(270.625,795.5625)"/>
<path d="M0 0 C10.89 0 21.78 0 33 0 C33 3.63 33 7.26 33 11 C26.07 10.67 19.14 10.34 12 10 C12 14.62 12 19.24 12 24 C17.61 24 23.22 24 29 24 C29 27.3 29 30.6 29 34 C23.39 34 17.78 34 12 34 C12 41.26 12 48.52 12 56 C8.04 56 4.08 56 0 56 C0 37.52 0 19.04 0 0 Z " fill="#0D9240" transform="translate(761,719)"/>
<path d="M0 0 C5.6925 -0.12375 5.6925 -0.12375 11.5 -0.25 C12.68013672 -0.28641602 13.86027344 -0.32283203 15.07617188 -0.36035156 C23.05669293 -0.44387491 28.40444512 0.68102626 34.4375 6.25 C36.44631516 9.78551467 37.18389097 12.97738496 37 17 C35.34928741 22.72894371 32.89038825 25.6438512 28 29 C22.32611329 31.57418094 16.72114053 31.22646765 10.625 31.125 C7.11875 31.08375 3.6125 31.0425 0 31 C0 20.77 0 10.54 0 0 Z " fill="#B4DDFC" transform="translate(258,595)"/>
<path d="M0 0 C5.08592267 2.36132124 6.91432912 4.88712681 9 10 C9.2844321 12.7662416 9.42156865 15.2472756 9.375 18 C9.38660156 18.68578125 9.39820313 19.3715625 9.41015625 20.078125 C9.37642094 25.97055997 7.84575682 29.99138228 3.875 34.3125 C-0.04180354 36.61149338 -3.4794414 37.19202373 -8 37 C-13.27483664 35.27553417 -15.86020959 32.39570657 -19 28 C-21.1440568 21.6356795 -21.15499923 13.59761932 -18.3125 7.5 C-13.73046472 -0.0840584 -8.53461087 -1.22818189 0 0 Z " fill="#AFDAFA" transform="translate(729,729)"/>
<path d="M0 0 C3.97767012 1.74825017 6.14913263 4.78450637 7.875 8.6875 C9.76350786 14.64529267 10.04018491 20.99853653 7.75 26.875 C5.57931499 30.75122323 3.61243115 33.03254131 -0.1875 35.3125 C-5.41597368 36.59057134 -10.15133015 36.00471188 -14.875 33.4375 C-19.77494379 27.81697625 -20.5207808 21.82914673 -20.28125 14.61328125 C-19.71266246 9.33015534 -17.98769476 6.16054135 -14.5 2.0625 C-10.19031283 -1.18053959 -5.11232617 -0.92813064 0 0 Z " fill="#AEDAF9" transform="translate(333,804)"/>
<path d="M0 0 C1.32616259 2.56336361 2.4609563 5.09772886 3.42041016 7.81884766 C3.68052887 8.55285797 3.94064758 9.28686829 4.20864868 10.04312134 C4.48268524 10.82553192 4.7567218 11.6079425 5.0390625 12.4140625 C5.32478119 13.22491302 5.61049988 14.03576355 5.90487671 14.8711853 C6.50626229 16.58032686 7.10630063 18.28994298 7.70507812 20 C8.62462291 22.62392398 9.55032147 25.24562089 10.4765625 27.8671875 C11.06026789 29.52851516 11.64361372 31.1899692 12.2265625 32.8515625 C12.50464752 33.63802155 12.78273254 34.42448059 13.06924438 35.23477173 C15 40.77040122 15 40.77040122 15 43 C5.43 43 -4.14 43 -14 43 C-12.65931677 36.96692548 -11.25937423 31.4341489 -9.1796875 25.68359375 C-8.91616486 24.94166275 -8.65264221 24.19973175 -8.38113403 23.43531799 C-7.55071797 21.100907 -6.7130093 18.76919446 -5.875 16.4375 C-5.30550184 14.84066866 -4.73648717 13.24366479 -4.16796875 11.64648438 C-2.78421719 7.76230965 -1.39392589 3.88053444 0 0 Z " fill="#B6DDFC" transform="translate(620,601)"/>
<path d="M0 0 C2.73083902 -0.13548815 5.45491807 -0.23429855 8.1875 -0.3125 C8.95642578 -0.35439453 9.72535156 -0.39628906 10.51757812 -0.43945312 C14.84754995 -0.53237098 16.47848938 -0.40855048 20.01171875 2.359375 C22 5 22 5 22.625 7.5625 C21.70116397 11.16546053 20.14089156 12.0568025 17 14 C14.04226156 14.47313725 11.17300596 14.38013102 8.1875 14.25 C7.00510742 14.22292969 7.00510742 14.22292969 5.79882812 14.1953125 C3.86535739 14.14844048 1.93251715 14.0767041 0 14 C0 9.38 0 4.76 0 0 Z " fill="#B1DBFA" transform="translate(521,751)"/>
<path d="M0 0 C11.88452656 -0.4295612 11.88452656 -0.4295612 16 3 C17 4 17 4 17.375 7.8125 C17.29633659 10.94217979 17.11038931 11.84230099 15.25 14.5 C10.15965821 16.84938852 5.56835439 16.24476283 0 16 C0 10.72 0 5.44 0 0 Z " fill="#ADD9F5" transform="translate(621,803)"/>
<path d="M0 0 C12.03647687 -0.43505338 12.03647687 -0.43505338 16 3 C17.44430855 5.88861709 17.37688506 7.79647701 17 11 C15.25 13.875 15.25 13.875 12 16 C7.90373835 16.42081232 4.13768332 16.22734524 0 16 C0 10.72 0 5.44 0 0 Z " fill="#B1DBFA" transform="translate(638,728)"/>
<path d="M0 0 C2.60478883 -0.0809313 5.20706653 -0.14045434 7.8125 -0.1875 C8.55048828 -0.21263672 9.28847656 -0.23777344 10.04882812 -0.26367188 C15.49313731 -0.33757652 15.49313731 -0.33757652 17.98828125 1.32421875 C19.58108407 3.9624906 19.37539322 5.99685427 19 9 C17.98828125 10.67578125 17.98828125 10.67578125 16 12 C13.18872957 12.21714241 10.6116655 12.28284276 7.8125 12.1875 C6.68811523 12.16719727 6.68811523 12.16719727 5.54101562 12.14648438 C3.69370233 12.11118539 1.84675934 12.05737917 0 12 C0 8.04 0 4.08 0 0 Z " fill="#B6DDFB" transform="translate(521,729)"/>
<path d="M0 0 C2 1 2 1 2.77783203 2.81005859 C3.01872559 3.58172363 3.25961914 4.35338867 3.5078125 5.1484375 C3.77207031 5.98890625 4.03632813 6.829375 4.30859375 7.6953125 C4.57800781 8.57960938 4.84742188 9.46390625 5.125 10.375 C5.40214844 11.2515625 5.67929687 12.128125 5.96484375 13.03125 C8 19.58786176 8 19.58786176 8 23 C3.38 23 -1.24 23 -6 23 C-5.38334864 17.60607261 -4.12077204 12.71604717 -2.4375 7.5625 C-2.20353516 6.83095703 -1.96957031 6.09941406 -1.72851562 5.34570312 C-1.15732778 3.56219821 -0.57936877 1.78086417 0 0 Z " fill="#B4DDF7" transform="translate(386,730)"/>
<path d="M0 0 C1.62228516 -0.01836914 1.62228516 -0.01836914 3.27734375 -0.03710938 C9.04182296 -0.04766703 13.94029921 0.21761562 19.375 2.1875 C16.01547644 3.30734119 13.70589543 3.215566 10.17578125 3.06640625 C8.54249878 3.00175171 8.54249878 3.00175171 6.8762207 2.93579102 C4.80280396 2.84382446 4.80280396 2.84382446 2.6875 2.75 C-1.705625 2.564375 -6.09875 2.37875 -10.625 2.1875 C-10.625 20.0075 -10.625 37.8275 -10.625 56.1875 C-11.285 56.1875 -11.945 56.1875 -12.625 56.1875 C-12.65026563 48.37297248 -12.66783105 40.55845542 -12.67993164 32.74389648 C-12.68497383 30.08308519 -12.69180736 27.42227668 -12.70043945 24.76147461 C-12.71251009 20.94644484 -12.71822929 17.13145156 -12.72265625 13.31640625 C-12.72781754 12.11850967 -12.73297882 10.9206131 -12.73829651 9.68641663 C-12.73837204 8.5853508 -12.73844757 7.48428497 -12.73852539 6.34985352 C-12.740746 5.37500504 -12.74296661 4.40015656 -12.74525452 3.39576721 C-12.44228124 -2.16781562 -4.21645176 0.00246001 0 0 Z " fill="#068A2C" transform="translate(638.625,718.8125)"/>
<path d="M0 0 C0.66 0.33 1.32 0.66 2 1 C-8.56 11.56 -19.12 22.12 -30 33 C-30 29.37214289 -29.39588698 28.99319114 -26.96484375 26.453125 C-26.31966797 25.7725 -25.67449219 25.091875 -25.00976562 24.390625 C-24.32591797 23.68421875 -23.64207031 22.9778125 -22.9375 22.25 C-21.95233398 21.21359375 -21.95233398 21.21359375 -20.94726562 20.15625 C-9.55465242 8.21364857 -9.55465242 8.21364857 -3.5625 3.0625 C-2.88316406 2.47597656 -2.20382812 1.88945312 -1.50390625 1.28515625 C-1.00761719 0.86105469 -0.51132812 0.43695313 0 0 Z " fill="#078B30" transform="translate(535,462)"/>
<path d="M0 0 C1.43419432 4.30258295 -0.58245334 6.99721885 -2.4375 10.875 C-4.64817249 15.49846362 -6.15934677 18.79779673 -6 24 C-8.5 26.8125 -8.5 26.8125 -11 29 C-9.61119413 22.70311055 -7.50138074 17.03247476 -4.9375 11.125 C-4.57333984 10.27164062 -4.20917969 9.41828125 -3.83398438 8.5390625 C-1.24463427 2.48926854 -1.24463427 2.48926854 0 0 Z " fill="#028522" transform="translate(437,498)"/>
<path d="M0 0 C0.33 0 0.66 0 1 0 C1 3.3 1 6.6 1 10 C-0.32 10.33 -1.64 10.66 -3 11 C-2.69078116 9.54096742 -2.37751201 8.08279278 -2.0625 6.625 C-1.88847656 5.81289063 -1.71445312 5.00078125 -1.53515625 4.1640625 C-1 2 -1 2 0 0 Z " fill="#C4E3F4" transform="translate(507,813)"/>
<path d="M0 0 C2.6855594 2.6855594 3.06049974 5.37621328 4 9 C2.02 9.99 2.02 9.99 0 11 C0 7.37 0 3.74 0 0 Z " fill="#99D0DD" transform="translate(471,812)"/>
<path d="M0 0 C0.33 0 0.66 0 1 0 C1 4.95 1 9.9 1 15 C0.67 15 0.34 15 0 15 C0 12.69 0 10.38 0 8 C-0.66 8 -1.32 8 -2 8 C-1.125 2.25 -1.125 2.25 0 0 Z " fill="#90CCD5" transform="translate(478,736)"/>
<path d="M0 0 C0.99 0.33 1.98 0.66 3 1 C1.70700306 3.88437779 0.34058637 5.87219421 -2 8 C-1.34 5.36 -0.68 2.72 0 0 Z " fill="#0A8B32" transform="translate(428,519)"/>
</svg>
